<svg xmlns="http://www.w3.org/2000/svg" viewBox="0 0 500 500"><path d="M30.62 158.94S49.87 77.58 125.73 38s166.33-22.74 240-11.1 120.53 68 115.52 135.61-64.42 74-109.78 141.79-47.71 93-120.78 124.16-166.91-20.11-203-111-17.07-158.52-17.07-158.52z" fill="#fbdc36"/><path d="M30.62 158.94S49.87 77.58 125.73 38s166.33-22.74 240-11.1 120.53 68 115.52 135.61-64.42 74-109.78 141.79-47.71 93-120.78 124.16-166.91-20.11-203-111-17.07-158.52-17.07-158.52z" fill="#fff" opacity=".8"/><path fill="none" stroke="#000" stroke-miterlimit="10" stroke-dasharray="2" d="M89 199l155 21-114-120M308 85l-64 135M245.14 215.71L375 185"/><path fill="#263238" stroke="#263238" stroke-miterlimit="10" d="M42.12 172.38h83.71v55.09H42.12z"/><path fill="#fff" stroke="#263238" stroke-miterlimit="10" d="M58.57 172.38h50.8v55.09h-50.8z"/><rect x="45.48" y="177.98" width="9.6" height="9.6" rx="2" fill="#fff" stroke="#263238" stroke-miterlimit="10"/><rect x="45.48" y="188.78" width="9.6" height="9.6" rx="2" fill="#fff" stroke="#263238" stroke-miterlimit="10"/><rect x="45.48" y="199.57" width="9.6" height="9.6" rx="2" fill="#fff" stroke="#263238" stroke-miterlimit="10"/><rect x="45.48" y="210.37" width="9.6" height="9.6" rx="2" fill="#fff" stroke="#263238" stroke-miterlimit="10"/><rect x="113.08" y="177.98" width="9.6" height="9.6" rx="2" fill="#fff" stroke="#263238" stroke-miterlimit="10"/><rect x="113.08" y="188.78" width="9.6" height="9.6" rx="2" fill="#fff" stroke="#263238" stroke-miterlimit="10"/><rect x="113.08" y="199.57" width="9.6" height="9.6" rx="2" fill="#fff" stroke="#263238" stroke-miterlimit="10"/><rect x="113.08" y="210.37" width="9.6" height="9.6" rx="2" fill="#fff" stroke="#263238" stroke-miterlimit="10"/><path fill="#fbdc36" d="M102.4 199.58l-31.15-17.99v35.98l31.15-17.99z"/><path fill="#fff" stroke="#263238" stroke-miterlimit="10" d="M82.76 65.5h76.34v65.93H82.76z"/><path fill="#263238" stroke="#263238" stroke-miterlimit="10" d="M87.07 69.22h67.72v58.49H87.07z"/><path fill="#fff" stroke="#263238" stroke-miterlimit="10" d="M154.79 115.09l-12.92-15.7-13.55 5.54-18.47-15.39-22.78 12.52v25.65h67.72v-12.62z"/><circle cx="132.63" cy="81.53" r="8.62" fill="#fff" stroke="#263238" stroke-miterlimit="10"/><path fill="#fff" stroke="#263238" stroke-miterlimit="10" d="M69.22 56.26h76.34v65.93H69.22z"/><path fill="#263238" stroke="#263238" stroke-miterlimit="10" d="M73.53 59.98h67.72v58.49H73.53z"/><path fill="#fff" stroke="#263238" stroke-miterlimit="10" d="M141.25 105.85l-12.93-15.7-13.54 5.54L96.31 80.3 73.53 92.83v25.64h67.72v-12.62z"/><circle cx="119.09" cy="72.3" r="8.62" fill="#fbdc36"/><path fill="#fff" stroke="#263238" stroke-miterlimit="10" d="M277.89 30.14h79.56v75.26h-79.56z"/><path d="M357.45 43.42l-9 16.72L333 58.55c6.57-8 11.82-17.44 13.94-28.41h-4.08C340.56 41 335 50.21 328.13 58.05l-50.24-5.17v4l8.15.84-8.15 21.9v11.49l5.23-14 19.32 2.71c-2.85 1.9-5.52 3.62-7.89 5.13-9.11 5.82-14 12.44-16.66 18v2.5h3.29c2.28-5.13 6.74-11.52 15.52-17.13 3.39-2.17 7.38-4.72 11.61-7.68l27.06 3.79L324 105.4h4.55l11-20.35A11 11 0 01348 96.18l-.39 9.22h4l.37-9.05a15 15 0 00-10.48-14.91l9.19-17 6.76.69v-4l-4.71-.48 4.71-8.73zm-50.16 33l-22.75-3.19 5.61-15.06 34.58 3.56a129 129 0 01-17.44 14.68zm30.1 4.22L313 77.21a121.26 121.26 0 0016.78-15l16.6 1.79z" fill="#263238"/><path d="M351 105l-3-.26c.53-6 0-10.91-1.51-14.48a10.07 10.07 0 00-7.91-5.87L306.71 80a1.52 1.52 0 01-1.24-1.08 1.5 1.5 0 01.49-1.56l19.81-16.52-30.93-3 .29-3 34.51 3.35a1.5 1.5 0 01.81 2.65l-20 16.64 28.51 4a13.1 13.1 0 0110.26 7.66c1.78 4 2.34 9.36 1.78 15.86z" fill="#fbdc36"/><path d="M295 23.15a12.45 12.45 0 00-12.46 12.45c0 6.88 12.44 20.75 12.44 20.75s12.45-13.87 12.45-20.75A12.45 12.45 0 00295 23.15zm0 17.52a4.15 4.15 0 114.15-4.15 4.15 4.15 0 01-4.15 4.15z" fill="#fbdc36"/><path fill="none" stroke="#263238" stroke-linecap="round" stroke-miterlimit="10" d="M358 135.2h90v85.13h-90z"/><path fill="#fff" stroke="#263238" stroke-linecap="round" stroke-miterlimit="10" d="M363.22 140.14h79.56v75.26h-79.56z"/><path d="M430.39 184.82a2.58 2.58 0 002.55-2.06 14 14 0 00.24-2.53 13.76 13.76 0 00-13-13.73 13.77 13.77 0 00-26.88 4.24c0 .37 0 .74.06 1.11h-.06a10.44 10.44 0 00-10.44 10.45 2.55 2.55 0 002.59 2.5z" fill="#fbdc36"/><path d="M387 174a10.14 10.14 0 1112.5-14.78M390.9 145.57v6.49M372.25 163.81h6.08M381.57 173.95l-4.46 3.65M377.52 150.84l4.46 4.46" fill="none" stroke="#263238" stroke-linecap="round" stroke-miterlimit="10" stroke-width="2"/><path d="M387.16 203.81a1 1 0 001-.81 5.36 5.36 0 00.09-1 5.43 5.43 0 00-5.13-5.42 5.43 5.43 0 00-10.59 1.67 3.15 3.15 0 000 .44 4.11 4.11 0 00-4.11 4.12 1 1 0 001 1z" fill="#fbdc36"/><path fill="none" stroke="#263238" stroke-linecap="round" stroke-miterlimit="10" d="M371.22 204.46l-3.26 4.8M381.2 204.46l-3.26 4.8M374.68 207.53l-3.26 4.8M384.47 207.53l-3.27 4.8"/><path d="M413.06 203.81a1 1 0 001-.81 4.62 4.62 0 00.1-1 5.43 5.43 0 00-5.13-5.42 5.43 5.43 0 00-10.59 1.67v.44a4.12 4.12 0 00-4.12 4.12 1 1 0 001 1z" fill="#fbdc36"/><path fill="none" stroke="#263238" stroke-linecap="round" stroke-miterlimit="10" d="M397.13 204.46l-3.26 4.8M407.11 204.46l-3.26 4.8M400.59 207.53l-3.27 4.8M410.37 207.53l-3.26 4.8"/><path d="M439 203.81a1 1 0 001-.81 5.36 5.36 0 00.09-1 5.43 5.43 0 00-5.12-5.42 5.43 5.43 0 00-10.59 1.67v.44a4.11 4.11 0 00-4.12 4.12 1 1 0 001 1z" fill="#fbdc36"/><path fill="none" stroke="#263238" stroke-linecap="round" stroke-miterlimit="10" d="M423.04 204.46l-3.26 4.8M433.02 204.46l-3.27 4.8M426.49 207.53l-3.26 4.8M436.28 207.53l-3.26 4.8"/><path d="M411 109.23h0a21 21 0 01-21-21h0a21 21 0 0121-21h0a21 21 0 0121 21h0a21 21 0 01-21 21z" fill="#263238" stroke="#263238" stroke-miterlimit="10"/><path d="M423.05 87.76a11.29 11.29 0 00-22.56-.21v.5a11.16 11.16 0 001.61 5.78l-2 6 6.25-2a11.29 11.29 0 0016.74-9.8zm-11.29 9.7a9.46 9.46 0 01-5.22-1.56l-3.64 1.17 1.18-3.5a9.31 9.31 0 01-1.81-5.52c0-.31 0-.62.05-.92a9.49 9.49 0 0118.9.18v.74a9.46 9.46 0 01-9.46 9.41z" fill="#fbdc36" fill-rule="evenodd"/><path d="M416.94 90.31c-.28-.14-1.64-.81-1.89-.9s-.44-.13-.63.14a13.29 13.29 0 01-.88 1.07c-.16.19-.32.21-.6.07a7.26 7.26 0 01-2.22-1.36 8.05 8.05 0 01-1.54-1.9c-.16-.27 0-.42.12-.56s.28-.32.42-.48l.1-.13a3.34 3.34 0 00.17-.33.48.48 0 000-.48c-.07-.14-.62-1.49-.85-2s-.46-.45-.63-.45h-.53a1.05 1.05 0 00-.74.34 3.11 3.11 0 00-1 2.3 3.67 3.67 0 00.14.93 6 6 0 001 1.9 11.33 11.33 0 004.72 4.15c2.82 1.1 2.82.73 3.33.68a2.77 2.77 0 001.86-1.3 2.43 2.43 0 00.17-1.31c-.06-.18-.25-.25-.52-.38z" fill="#fbdc36" fill-rule="evenodd"/><path d="M210.66 82.07h0a21 21 0 01-21-21h0a21 21 0 0121-21h0a21 21 0 0121 21h0a21 21 0 01-21 21z" fill="#263238" stroke="#263238" stroke-miterlimit="10"/><path d="M207.34 73.78h5.1V61H216l.38-4.28h-3.94v-2.43c0-1 .2-1.41 1.18-1.41h2.76v-4.44h-3.53c-3.8 0-5.51 1.67-5.51 4.87v3.41h-2.65v4.33h2.65z" fill="#fbdc36"/><path d="M419.74 281.54h0a21 21 0 01-21-21h0a21 21 0 0121-21h0a21 21 0 0121 21h0a21 21 0 01-21 21z" fill="#263238" stroke="#263238" stroke-miterlimit="10"/><path d="M419.74 251.16c3.07 0 3.43 0 4.64.06a6.31 6.31 0 012.14.4 3.72 3.72 0 011.32.86 3.56 3.56 0 01.86 1.32 6.57 6.57 0 01.39 2.13c.06 1.22.07 1.58.07 4.65s0 3.43-.07 4.64a6.51 6.51 0 01-.39 2.13 3.68 3.68 0 01-.86 1.33 3.72 3.72 0 01-1.32.86 6.65 6.65 0 01-2.14.39c-1.21.06-1.57.07-4.64.07s-3.43 0-4.65-.07a6.57 6.57 0 01-2.13-.39 3.56 3.56 0 01-1.32-.86 3.68 3.68 0 01-.86-1.33 6.44 6.44 0 01-.4-2.13c-.05-1.21-.06-1.57-.06-4.64s0-3.43.06-4.65a6.5 6.5 0 01.4-2.13 3.82 3.82 0 012.18-2.18 6.24 6.24 0 012.13-.4c1.22-.05 1.58-.06 4.65-.06m0-2.07c-3.12 0-3.51 0-4.74.07a8.42 8.42 0 00-2.79.53 5.46 5.46 0 00-2 1.33 5.54 5.54 0 00-1.33 2 8.42 8.42 0 00-.53 2.79c-.06 1.23-.07 1.62-.07 4.74s0 3.51.07 4.74a8.35 8.35 0 00.53 2.78 5.93 5.93 0 003.36 3.37 8.68 8.68 0 002.76.56c1.23.06 1.62.07 4.74.07s3.51 0 4.74-.07a8.74 8.74 0 002.79-.53 5.93 5.93 0 003.36-3.37 8.61 8.61 0 00.53-2.78c.06-1.23.07-1.62.07-4.74s0-3.51-.07-4.74a8.68 8.68 0 00-.53-2.79 5.95 5.95 0 00-3.36-3.36 8.47 8.47 0 00-2.79-.53c-1.23-.06-1.62-.07-4.74-.07" fill="#fbdc36"/><path d="M419.74 254.68a5.9 5.9 0 105.9 5.9 5.9 5.9 0 00-5.9-5.9m0 9.73a3.83 3.83 0 113.83-3.83 3.83 3.83 0 01-3.83 3.83M427.25 254.44a1.38 1.38 0 11-1.38-1.38 1.38 1.38 0 011.38 1.38" fill="#fbdc36"/><path d="M87 299h0a21 21 0 01-21-21h0a21 21 0 0121-21h0a21 21 0 0121 21h0a21 21 0 01-21 21z" fill="#263238" stroke="#263238" stroke-miterlimit="10"/><path d="M75.83 285a13 13 0 0020-11.58 9.22 9.22 0 002.29-2.37 9.08 9.08 0 01-2.63.72 4.57 4.57 0 002-2.53 9.24 9.24 0 01-2.91 1.11 4.59 4.59 0 00-7.81 4.18 13 13 0 01-9.44-4.79 4.59 4.59 0 001.42 6.12 4.58 4.58 0 01-2.08-.57 4.58 4.58 0 003.68 4.55 4.79 4.79 0 01-2.07.08 4.58 4.58 0 004.28 3.18 9.26 9.26 0 01-6.73 1.9z" fill="#fbdc36"/><g opacity=".3" fill="none" stroke="#000" stroke-linecap="round" stroke-miterlimit="10"><path d="M50.79 133.21v4.58M50.79 140.21v4.58M45 139h4.58M52 139h4.58"/></g><g opacity=".3" fill="none" stroke="#000" stroke-linecap="round" stroke-miterlimit="10"><path d="M174.82 45.76v4.58M174.82 52.75v4.58M169.04 51.55h4.58M176.03 51.55h4.58"/></g><g opacity=".3" fill="none" stroke="#000" stroke-linecap="round" stroke-miterlimit="10"><path d="M340.31 214.23v4.58M340.31 221.22v4.58M334.52 220.01h4.58M341.52 220.01h4.58"/></g><g opacity=".3" fill="none" stroke="#000" stroke-linecap="round" stroke-miterlimit="10"><path d="M449.14 106.14v4.58M449.14 113.13v4.58M443.36 111.93h4.58M450.35 111.93h4.58"/></g><g opacity=".3" fill="none" stroke="#000" stroke-linecap="round" stroke-miterlimit="10"><path d="M141.28 317.1v4.58M141.28 324.09v4.58M135.49 322.88h4.58M142.49 322.88h4.58"/></g><path d="M147 162.62a3 3 0 11-3-3 3 3 0 013 3zM188 94.78a3 3 0 11-3-3 3 3 0 013 3zM383.26 249.09a3 3 0 11-3-3 3 3 0 013 3zM156.65 270.7a3 3 0 11-3-3 3 3 0 013 3zM126.09 325.87a3 3 0 11-3-3 3 3 0 013 3z" fill="none" stroke="#000" stroke-linecap="round" stroke-miterlimit="10" opacity=".3"/><circle cx="429.48" cy="122.36" r="2.98" fill="none" stroke="#000" stroke-linecap="round" stroke-miterlimit="10" opacity=".3"/><path d="M376.56 24a3 3 0 11-3-3 3 3 0 013 3z" fill="none" stroke="#000" stroke-linecap="round" stroke-miterlimit="10" opacity=".3"/><g stroke="#263238"><path d="M211.5 283.5s4 79 6.5 109.5 7.5 50.5 7.5 50.5-5 2-4.5 5l1 6S204 465 206 469a12.24 12.24 0 005.5 5.5H249s3-5 2.5-9.5-4.5-14-4.5-17 4-2.5 2.5-6.5-3.5-7-3.5-8.5-3.5-128.5-3.5-128.5h9.5l15 132a7.89 7.89 0 00-1.5 4c0 2 1.5 6 1.5 6v3l3.5 24.72h27a19.39 19.39 0 00-1.5-10.72 46.64 46.64 0 00-7.5-10L286 444v-10s1-4 1.5-6.5 1-9 0-11-.5-86-.5-86l.5-45-46-14.5z" fill="#263238" stroke-miterlimit="10"/><path d="M242 144s-11.5 1-20 12.5-11 129-11 129h76.5S274 179 268 158.5 242 144 242 144z" fill="#fff" stroke-miterlimit="10"/><path fill="#263238" stroke-miterlimit="10" d="M264.5 184.71l7.33 100.15h5.29L264.5 184.71z"/><ellipse cx="243.76" cy="151.56" rx="14.8" ry="13.37" fill="#fff" stroke-miterlimit="10"/><path d="M223.75 136.19c1 5 2.2 10 3.52 12.87 3.33 7.34 14.33 8.67 19.67 6s7.33-9.33 8.66-16c.17-.82.32-1.79.45-2.87z" fill="#263238" stroke-miterlimit="10"/><path d="M224.33 186s-3.66 67.67-4.33 86.33-2.33 47-2.33 47a90.68 90.68 0 01-26-6.66c-13-5.67-14.67-7-14.67-7l16.67-81-24.34-2.67A199.86 199.86 0 01188 183c12.33-19.67 22.33-27.33 29-31s11.33-6.33 11.33-6.33zM257 143s3.33 22 6.33 39S277 317.67 277 317.67l31.67-1a439.65 439.65 0 00-4.34-76c-6-40-13.66-62-19-74.34s-18.66-21.66-22.66-23.33-5.67 0-5.67 0z" fill="#fbdc36" stroke-miterlimit="10"/><path d="M287.5 201s8.5 40.5 9.5 56.5 1.67 27.5 1.67 27.5 4.33-21 2.33-39.5-13.5-44.5-13.5-44.5zM225.83 147.09c-2 1.13-5.11 2.86-8.83 4.91a52.43 52.43 0 00-9.76 7c2.51 6.18 9.66 22.44 17.09 27l1.5-24.9zM214.02 235.6l-25.24 15.47 2.04-10.99 23.2-4.48z" fill="#263238" stroke-miterlimit="10"/><path fill="#fff" stroke-miterlimit="10" d="M206.12 189.43L207 185M201.33 213.67l3.88-19.61M264 186s1.67-14 7-25.33 8.67-16.67 3-25.67-22.67-19.67-40.33-15.33-25 24-22.67 34S224.33 186 224.33 186s2.67-23.33 6-34.67 9.67-12 19.67-10 8.33 13.34 8.33 13.34z"/><rect x="215.72" y="115.87" width="9.86" height="19.47" rx="2.34" fill="#263238" stroke-miterlimit="10"/><path fill="#fff" stroke-miterlimit="10" d="M219.36 115.87h2.6v19.47h-2.6z"/><rect x="259.59" y="115.87" width="9.86" height="19.47" rx="2.34" fill="#263238" stroke-miterlimit="10"/><path fill="#fff" stroke-miterlimit="10" d="M263.22 115.87h2.6v19.47h-2.6zM224.33 117.67s2.67 20.66 6 28 14.34 8.66 19.67 6 7.33-9.34 8.67-16 1.66-23.34 1.66-23.34L228 113z"/><path fill="none" stroke-miterlimit="10" d="M245.83 126l.78 12.19-6.23.26M237 140.27s6 3.38 14.27-.52"/><path d="M225.32 96.47s-4.36 1.7-5.81 9.94 4.28 16 4.28 16l8.88-3.91-9.67 8.25a24.83 24.83 0 0017.21 1.94 36.58 36.58 0 0015.28-7.76l-1.22 5.82a7.84 7.84 0 007-4.61c2.43-4.85 5.34-14.31 1-23.52s-17.35-10.41-26.08-9a25.6 25.6 0 00-14 7.53z" fill="#263238" stroke-miterlimit="10"/><rect x="229.44" y="177.7" width="17.62" height="38" rx="1.93" fill="#263238" stroke-miterlimit="10"/><path d="M243.2 198.8c-3 0-5.86.31-5.86.31a18.9 18.9 0 013.33-2.11 24.88 24.88 0 016.14-1.81 2.54 2.54 0 001.86-3.86c-1-2-9.79-1.11-15 2.67a21 21 0 00-4.08 4l-.26-8.49s-3.09 3.08-3.7 5.24c-.48 1.65-1.48 8.68-1.94 11.92-.64 1-1.21 1.91-1.69 2.62-2.67 4-10.73 3.81-10.73 3.81l-.27 16.23 15.33-11s8.34-.66 11.34-2 7.66-3 9-4.66.44-3.44 1-4.34a9 9 0 00.66-3.33 8.32 8.32 0 001-4.67c-.33-2.33-3.13-.53-6.13-.53z" fill="#fff" stroke-miterlimit="10"/><path d="M248.33 204s-3 .66-6.67 1.28M247.67 207.33s-4.78 2.26-6.32 3.19" fill="none" stroke-linecap="round" stroke-linejoin="round"/><path d="M183 216.33l33-5 1.33 23.67s-24.33 8.67-36 10.67S163 238 165 229.33s12-25.27 12-25.27" fill="#fbdc36" stroke-miterlimit="10"/><circle cx="369.75" cy="409.75" r="64.75" fill="#263238" stroke-miterlimit="10"/><circle cx="369.75" cy="409.75" r="55.25" fill="#fff" stroke-miterlimit="10"/><circle cx="369.75" cy="409.75" r="6.75" fill="#fff" stroke-miterlimit="10"/><circle cx="152.75" cy="409.75" r="64.75" fill="#263238" stroke-miterlimit="10"/><circle cx="152.75" cy="409.75" r="55.25" fill="#fff" stroke-miterlimit="10"/><circle cx="152.75" cy="409.75" r="6.75" fill="#fff" stroke-miterlimit="10"/><path d="M285.53 378.54h0a1.9 1.9 0 011.89 1.81l1.58 35.46a3.46 3.46 0 01-3.46 3.61h0a3.46 3.46 0 01-3.46-3.61l1.57-35.46a1.89 1.89 0 011.88-1.81z" fill="#fff" stroke-miterlimit="10"/><path fill="#263238" stroke-miterlimit="10" d="M296.92 380.35h-21.35v-4.7h21.35z"/><circle cx="286.25" cy="416.25" r="16.75" fill="#fff" stroke-miterlimit="10"/><path d="M287.81 420.41l-115.74-81.23a2.5 2.5 0 012.88-4.09l109.74 77 25.88-106.68a2.5 2.5 0 114.86 1.18z" fill="#fff" stroke-miterlimit="10"/><path d="M287.5 419a2.5 2.5 0 01-.2-5l82.25-6.75a2.5 2.5 0 11.4 5L287.7 419z" fill="#fff" stroke-miterlimit="10"/><path d="M369.75 412.25a2.49 2.49 0 01-2-1l-57.91-77.75a9.21 9.21 0 00-7-3.71L177.9 325a2.5 2.5 0 01.2-5l126.58 4.85a10.71 10.71 0 018.16 4.3l58.91 79.11a2.48 2.48 0 01-.51 3.49 2.45 2.45 0 01-1.49.5z" fill="#fff" stroke-miterlimit="10"/><path d="M152.85 411.77a2.57 2.57 0 01-.67-.09 2.49 2.49 0 01-1.74-3.07l29.8-107.67-17.45-4.8a2.59 2.59 0 01-1.91-3 2.48 2.48 0 013.1-1.88l18.42 5.06a4.15 4.15 0 012.89 5.1l-30 108.49a2.5 2.5 0 01-2.44 1.86z" fill="#fff" stroke-miterlimit="10"/><path d="M166.3 292.53a5.39 5.39 0 10-5.39 5.39 5.39 5.39 0 005.39-5.39z" fill="#263238" stroke-miterlimit="10"/><path d="M186.82 300.67a5.39 5.39 0 10-5.39 5.39 5.39 5.39 0 005.39-5.39z" fill="#fff" stroke-miterlimit="10"/><path d="M309.51 297.31S285.5 300 284 304s2 5 4 5.5 27.67 1.17 39 0c4-.41 9.5-11 9.5-16.5s-8.5-1-13 .5-13.99 3.81-13.99 3.81z" fill="#263238" stroke-miterlimit="10"/><circle cx="285.89" cy="416.34" r="6.75" fill="#fff" stroke-miterlimit="10"/><path d="M285.53 454.88h0a1.89 1.89 0 01-1.89-1.81l-1.57-35.46a3.46 3.46 0 013.46-3.61h0a3.46 3.46 0 013.46 3.61l-1.57 35.46a1.9 1.9 0 01-1.89 1.81z" fill="#fff" stroke-miterlimit="10"/><path fill="#263238" stroke-miterlimit="10" d="M274.13 453.07h21.35v4.7h-21.35z"/><path d="M299.68 284s-4 5-6.52 6.83a7.73 7.73 0 00-3.41 6.06c0 1.86-.63 9.94-.63 10.4s.47 1.09 2 1.24a6.47 6.47 0 002.95-.46s3.42.93 5 1.24 2.95-.47 4.35-1.86 5-6.37 8.08-10.41 3.72-10.25 3.72-10.25l-15.06-4.35z" fill="#fff" stroke-miterlimit="10"/><path d="M294.09 308.07s.31-4.82.63-7.3 2.64-6.83 2.64-6.83M296.73 308.69s1.71-6.83 2.18-9.16a15.6 15.6 0 012.17-4.82M299.06 309.31s2.8-4.66 3.73-6.83 2.8-6.37 2.8-6.37" fill="none" stroke-miterlimit="10"/><path d="M286.33 196.33s14.34 52.34 14 66a205.29 205.29 0 01-1.66 22.67s2.57-.07 10 2.33c8.24 2.67 11 5 11 5s7.66-11.66 8-23.66-6-39.34-13-56.67-27.34-49.33-34-54" fill="#fbdc36" stroke-miterlimit="10"/></g><g><path fill="none" stroke="#263238" stroke-miterlimit="10" d="M13 474.5h475"/></g><g fill="#263238"><path d="M23.42 431c2.5-.36 7.26-3.45 7.26-3.46s-3-2.51-3.2-2.64c-2.43-1.56-8-3.14-10.54-1.08a3.83 3.83 0 00-.08 5.69c1.62 1.58 4.43 1.78 6.56 1.49zM69.76 407.4c.06 0-1.11-3.75-1.21-4-1.17-2.64-5-7.05-8.19-6.71a3.83 3.83 0 00-3.21 4.7c.47 2.23 2.7 3.95 4.65 4.87 2.28 1.1 7.96 1.14 7.96 1.14z"/><path d="M75.82 470.64c1.1 1.38 2.11 2.67 3 3.86h2.28c-1.15-1.47-2.48-3.13-4-4.93-.88-1-1.84-2.15-2.83-3.27a36.41 36.41 0 002.52-3.47c2 .68 6.19.5 6.72.47a162.702 162.702 0 01.93 11.2h1.85c-.15-2.12-.37-4.65-.7-7.5-.15-1.36-.34-2.81-.55-4.29.52-.16 4.78-1.49 6.34-2.88s2.88-3.25 2.72-5.24a3.36 3.36 0 00-3.86-3.18c-2.8.5-4.92 5.16-5.26 7.68 0 .14-.06 1.78-.06 2.81-.09-.61-.17-1.2-.27-1.82-.19-1.23-.41-2.46-.65-3.78-.13-.63-.27-1.27-.41-1.92s-.34-1.3-.5-2c-.42-1.53-.92-3.05-1.46-4.57 1.08-.17 4.91-.82 6.5-1.85s3.34-2.78 3.49-4.78a3.36 3.36 0 00-3.34-3.72c-2.84.07-5.65 4.36-6.36 6.79 0 .15-.36 2-.52 2.95-.32-.91-.65-1.83-1-2.74-1-2.64-2.2-5.27-3.33-7.9-.35-.81-.68-1.62-1-2.43.38-.05 5-.72 6.74-1.88 1.59-1 3.33-2.78 3.48-4.77a3.36 3.36 0 00-3.34-3.73c-2.84.08-5.64 4.36-6.36 6.79 0 .18-.5 2.78-.58 3.45-.75-1.78-1.48-3.56-2.12-5.34a58 58 0 01-2.18-7.37c.18 0 4.94-.7 6.78-1.88 1.59-1 3.33-2.78 3.48-4.78a3.35 3.35 0 00-3.34-3.72c-2.84.07-5.64 4.35-6.36 6.79 0 .16-.39 2.13-.53 3.08h-.16a42.34 42.34 0 01-.82-7.67c0-1.42 0-2.78.06-4.1.9 0 5-.25 6.78-1.13s3.62-2.39 4-4.36a3.36 3.36 0 00-2.91-4.07c-2.83-.24-6.09 3.71-7.07 6 0 .13-.45 1.48-.72 2.47 0-.59.07-1.21.12-1.78.17-2.14.47-4.09.75-5.81.16-1 .33-1.86.5-2.69.86-.49 4.32-2.53 5.47-4.1s2.1-3.8 1.52-5.71a3.36 3.36 0 00-4.45-2.28c-2.62 1.1-3.7 6.11-3.49 8.63 0 .22.7 3.6.75 3.58-.18.79-.36 1.64-.53 2.57-.32 1.72-.66 3.66-.88 5.81a57.9 57.9 0 00-.41 6.95 43.92 43.92 0 00.66 7.77.29.29 0 010 .09c-.39-.74-1.54-2.76-1.65-2.91-1.49-2-5.59-5.12-8.28-4.22a3.35 3.35 0 00-1.88 4.63c.82 1.83 3.05 2.89 4.9 3.31 2.08.48 6.62-.44 7-.52a59.31 59.31 0 002.11 7.77c.5 1.47 1 2.92 1.6 4.38-.35-.63-.68-1.18-.73-1.26-1.5-2-5.59-5.12-8.29-4.23a3.37 3.37 0 00-1.87 4.64c.82 1.83 3.05 2.88 4.89 3.31s5.76-.28 6.79-.48l.66 1.67c1.07 2.66 2.16 5.31 3.14 7.94.35.93.66 1.86 1 2.78-.32-.55-.59-1-.64-1.08-1.5-2.05-5.59-5.12-8.29-4.23a3.36 3.36 0 00-1.9 4.56c.82 1.83 3 2.88 4.9 3.31s5.38-.22 6.6-.45c.29 1 .58 1.92.82 2.86.14.65.33 1.26.44 1.91s.25 1.29.37 1.93c.2 1.23.4 2.5.56 3.71.11.84.21 1.64.3 2.45-.33-.93-1-2.73-1.1-2.87a13 13 0 00-4.59-4.72 4.49 4.49 0 00-.4-.63 3.36 3.36 0 00-5-.52c-2.06 2-1.26 7-.16 9.3.07.14.94 1.52 1.5 2.38-.4-.46-.8-.9-1.22-1.37-.84-.92-1.7-1.82-2.63-2.79l-1.4-1.37c-.46-.47-1-.91-1.5-1.37-1.19-1-2.45-2-3.74-3 .81-.74 3.64-3.39 4.41-5.13s1.24-4.16.27-5.91a3.36 3.36 0 00-4.84-1.26c-2.33 1.63-2.31 6.75-1.56 9.17 0 .15.78 1.83 1.2 2.74-.78-.58-1.56-1.16-2.36-1.72-2.33-1.62-4.74-3.18-7.14-4.76l-2.2-1.42c.29-.26 3.73-3.34 4.58-5.29.77-1.73 1.25-4.16.28-5.91a3.37 3.37 0 00-4.8-1.27c-2.33 1.63-2.31 6.75-1.56 9.17 0 .18 1.11 2.6 1.41 3.2-1.6-1.07-3.19-2.16-4.72-3.29a58.14 58.14 0 01-5.87-4.93c.13-.12 3.73-3.32 4.61-5.32.76-1.73 1.25-4.15.27-5.9a3.36 3.36 0 00-4.84-1.27c-2.32 1.63-2.3 6.75-1.56 9.17.05.16.86 2 1.26 2.87l-.13.09a41.82 41.82 0 01-4.93-5.94c-.82-1.16-1.54-2.31-2.21-3.45.73-.53 4.05-3 5-4.68s1.7-4 .92-5.84a3.36 3.36 0 00-4.67-1.79c-2.49 1.36-3 6.46-2.56 9 0 .13.45 1.48.76 2.46-.29-.52-.61-1.05-.88-1.55-1-1.89-1.86-3.68-2.58-5.27-.4-.9-.75-1.73-1.06-2.51.44-.89 2.2-4.51 2.29-6.44s-.33-4.33-1.87-5.61a3.36 3.36 0 00-5 .56c-1.59 2.36.28 7.13 1.85 9.12.13.17 2.57 2.62 2.59 2.57v-.05c.29.76.6 1.56 1 2.44.69 1.6 1.48 3.42 2.47 5.33a60.56 60.56 0 003.5 6 44.07 44.07 0 004.84 6.11l.06.07c-.73-.4-2.8-1.45-3-1.51-2.38-.88-7.49-1.19-9.25 1a3.36 3.36 0 001 4.9c1.69 1.08 4.13.73 5.91.06 2-.75 5.27-4 5.53-4.28a59.49 59.49 0 006 5.24c1.21.95 2.47 1.86 3.74 2.76l-1.3-.64c-2.38-.88-7.49-1.18-9.25 1.05a3.36 3.36 0 001 4.9c1.69 1.07 4.14.72 5.91.06s4.65-3.41 5.39-4.14l1.47 1c2.37 1.63 4.74 3.24 7 4.9.8.58 1.57 1.18 2.34 1.78-.57-.29-1.06-.53-1.13-.55-2.38-.89-7.49-1.19-9.25 1a3.36 3.36 0 001 4.9c1.69 1.08 4.13.72 5.91.06s4.37-3.14 5.26-4c.77.64 1.54 1.28 2.26 1.93.48.46 1 .87 1.43 1.35l1.37 1.4c.84.93 1.71 1.87 2.51 2.79.56.64 1.08 1.26 1.6 1.88-.79-.59-2.36-1.71-2.5-1.79-2.22-1.23-7.23-2.31-9.3-.37a3.37 3.37 0 00.24 5c1.51 1.32 4 1.34 5.83.95 2-.43 5.65-3 6.09-3.37.95 1.09 1.79 2.1 2.56 3.06zM473.79 446.66c-1.64-.24-4.76-2.27-4.76-2.27s2-1.65 2.1-1.74c1.59-1 5.28-2.06 6.91-.71a2.52 2.52 0 01.06 3.74 5.28 5.28 0 01-4.31.98zM443.18 430.91s.73-2.46.8-2.61c.76-1.74 3.26-4.63 5.37-4.41a2.51 2.51 0 012.11 3.09 5.25 5.25 0 01-3 3.19c-1.55.71-5.27.74-5.28.74z"/><path d="M440.12 472c-.73.9-1.39 1.75-2 2.53h-1.49c.75-1 1.62-2.06 2.61-3.23.58-.69 1.21-1.42 1.86-2.15a25.2 25.2 0 01-1.66-2.28 16.27 16.27 0 01-4.41.31c-.1.88-.19 1.73-.26 2.54-.17 1.82-.28 3.44-.35 4.81h-1.21c.1-1.39.24-3.06.46-4.93.1-.89.22-1.84.36-2.81a15.28 15.28 0 01-4.16-1.89 4.61 4.61 0 01-1.79-3.44 2.21 2.21 0 012.54-2.09c1.83.33 3.23 3.39 3.45 5v1.85c.06-.4.11-.79.18-1.2.12-.81.27-1.61.42-2.48q.13-.62.27-1.26c.08-.42.22-.85.33-1.29.28-1 .61-2 1-3a14.4 14.4 0 01-4.27-1.21 4.59 4.59 0 01-2.29-3.13 2.21 2.21 0 012.19-2.45c1.87.05 3.71 2.86 4.18 4.46 0 .1.24 1.28.34 1.93.21-.6.43-1.19.67-1.79.68-1.73 1.44-3.46 2.18-5.19.23-.53.45-1.06.67-1.59a15.39 15.39 0 01-4.42-1.24 4.59 4.59 0 01-2.29-3.13 2.2 2.2 0 012.19-2.45c1.86.05 3.71 2.86 4.18 4.46 0 .12.33 1.82.38 2.26.49-1.17 1-2.34 1.39-3.51a37.25 37.25 0 001.43-4.83 15.27 15.27 0 01-4.45-1.24 4.58 4.58 0 01-2.28-3.13 2.2 2.2 0 012.19-2.45c1.86.05 3.7 2.86 4.17 4.46 0 .1.26 1.4.35 2h.11a29 29 0 00.54-5v-2.69a15 15 0 01-4.46-.74 4.61 4.61 0 01-2.61-2.87 2.2 2.2 0 011.91-2.67c1.85-.15 4 2.44 4.64 4 0 .09.29 1 .47 1.63 0-.4 0-.8-.08-1.17-.11-1.41-.31-2.69-.49-3.82-.11-.64-.22-1.22-.33-1.76a14.86 14.86 0 01-3.59-2.7 4.62 4.62 0 01-1-3.75 2.21 2.21 0 012.92-1.49c1.72.72 2.43 4 2.29 5.67 0 .14-.46 2.36-.49 2.34.11.52.23 1.08.35 1.69.21 1.13.43 2.41.58 3.82a40.21 40.21 0 01.26 4.56 29.34 29.34 0 01-.43 5.1.14.14 0 010 .06c.26-.49 1-1.81 1.09-1.91 1-1.34 3.67-3.36 5.44-2.77a2.21 2.21 0 011.23 3 4.63 4.63 0 01-3.22 2.17 15.16 15.16 0 01-4.58-.34 39.61 39.61 0 01-1.37 5c-.32 1-.68 1.92-1.05 2.87l.48-.82c1-1.35 3.68-3.36 5.45-2.78a2.22 2.22 0 011.23 3.05 4.63 4.63 0 01-3.22 2.17 14.43 14.43 0 01-4.45-.32l-.44 1.1c-.7 1.75-1.41 3.49-2.06 5.21-.23.61-.43 1.22-.63 1.83.2-.37.38-.67.41-.71 1-1.35 3.68-3.37 5.45-2.78a2.21 2.21 0 011.23 3 4.61 4.61 0 01-3.22 2.18 14.18 14.18 0 01-4.33-.29c-.19.62-.38 1.25-.54 1.87-.1.43-.22.83-.29 1.26s-.17.85-.25 1.26c-.12.81-.26 1.65-.36 2.44-.08.55-.14 1.08-.2 1.61.22-.61.67-1.8.72-1.89a8.54 8.54 0 013-3.1 2.57 2.57 0 01.26-.41 2.2 2.2 0 013.26-.34c1.35 1.29.83 4.61.1 6.11 0 .08-.61 1-1 1.56.27-.3.52-.6.8-.9.55-.61 1.12-1.2 1.73-1.84l.92-.9c.3-.3.65-.59 1-.89.78-.68 1.6-1.34 2.45-2a14.44 14.44 0 01-2.89-3.36 4.63 4.63 0 01-.18-3.88 2.2 2.2 0 013.17-.83c1.53 1.07 1.52 4.43 1 6 0 .1-.51 1.2-.79 1.8.51-.38 1-.76 1.55-1.13 1.53-1.06 3.11-2.09 4.68-3.12l1.44-1a15.56 15.56 0 01-3-3.47 4.57 4.57 0 01-.17-3.87 2.19 2.19 0 013.17-.83c1.53 1.06 1.52 4.43 1 6 0 .12-.73 1.7-.93 2.1 1-.71 2.09-1.42 3.09-2.16a38.43 38.43 0 003.86-3.24 15.73 15.73 0 01-3-3.49 4.59 4.59 0 01-.17-3.88 2.2 2.2 0 013.17-.83c1.53 1.07 1.52 4.43 1 6 0 .11-.56 1.32-.83 1.88l.09.07a28.85 28.85 0 003.23-3.91c.54-.76 1-1.52 1.45-2.27a14.8 14.8 0 01-3.31-3.07 4.62 4.62 0 01-.6-3.83 2.21 2.21 0 013.07-1.18c1.63.9 2 4.24 1.67 5.87 0 .09-.29 1-.49 1.62.19-.34.4-.69.58-1a51.12 51.12 0 001.69-3.45c.26-.6.49-1.14.7-1.65a14.75 14.75 0 01-1.51-4.23 4.64 4.64 0 011.23-3.68 2.21 2.21 0 013.27.37c1 1.55-.19 4.68-1.22 6-.09.12-1.69 1.72-1.7 1.69-.19.49-.4 1-.64 1.6-.45 1.05-1 2.24-1.62 3.5a39.92 39.92 0 01-2.3 3.95 28.86 28.86 0 01-3.17 4h-.05c.48-.26 1.85-.95 2-1 1.56-.58 4.91-.78 6.07.69a2.21 2.21 0 01-.66 3.22 4.61 4.61 0 01-3.88 0 15.37 15.37 0 01-3.63-2.81 38.3 38.3 0 01-3.91 3.44c-.8.63-1.63 1.23-2.46 1.82.42-.22.8-.4.85-.42 1.56-.58 4.92-.78 6.07.68a2.21 2.21 0 01-.65 3.22 4.61 4.61 0 01-3.88 0 14.47 14.47 0 01-3.54-2.72l-1 .67c-1.55 1.07-3.11 2.13-4.6 3.22q-.78.57-1.53 1.17l.74-.37c1.56-.57 4.92-.78 6.07.69a2.21 2.21 0 01-.65 3.22 4.65 4.65 0 01-3.88 0 14.42 14.42 0 01-3.46-2.64c-.5.42-1 .84-1.48 1.27-.32.3-.64.57-.94.89l-.9.92c-.55.6-1.12 1.23-1.65 1.83-.36.42-.71.82-1 1.23.52-.39 1.55-1.12 1.64-1.17 1.46-.81 4.75-1.52 6.11-.25a2.21 2.21 0 01-.16 3.28 4.61 4.61 0 01-3.83.63 15.3 15.3 0 01-4-2.21c-.64.95-1.19 1.61-1.69 2.28z"/></g></svg>